PathFileType	4	(X/Y/Z)	s01c0403.trc
DataRate	CameraRate	NumFrames	NumMarkers	Units	OrigDataRate	OrigDataStartFrame	OrigNumFrames
200	200	4	47	mm	200	500	2000
Frame#	Time	racr			lacr			c7			jug			rlel			rdr			llel			ldr			lic			ric			lasi			rasi			rpsi			lpsi			rgt			lgt			rth1			rth2			rth3			rth4			rlfc			rsh1			rsh2			rsh3			rsh4			rlmal			rmmal			rcal			rtoe			rmt5			lth1			lth2			lth4			lth3			llfc			lsh1			lsh2			lsh3			lsh4			llmal			lmmal			lcal			ltoe			lmt5			SBIKE			LBIKE			RBIKE			
		X1	Y1	Z1	X2	Y2	Z2	X3	Y3	Z3	X4	Y4	Z4	X5	Y5	Z5	X6	Y6	Z6	X7	Y7	Z7	X8	Y8	Z8	X9	Y9	Z9	X10	Y10	Z10	X11	Y11	Z11	X12	Y12	Z12	X13	Y13	Z13	X14	Y14	Z14	X15	Y15	Z15	X16	Y16	Z16	X17	Y17	Z17	X18	Y18	Z18	X19	Y19	Z19	X20	Y20	Z20	X21	Y21	Z21	X22	Y22	Z22	X23	Y23	Z23	X24	Y24	Z24	X25	Y25	Z25	X26	Y26	Z26	X27	Y27	Z27	X28	Y28	Z28	X29	Y29	Z29	X30	Y30	Z30	X31	Y31	Z31	X32	Y32	Z32	X33	Y33	Z33	X34	Y34	Z34	X35	Y35	Z35	X36	Y36	Z36	X37	Y37	Z37	X38	Y38	Z38	X39	Y39	Z39	X40	Y40	Z40	X41	Y41	Z41	X42	Y42	Z42	X43	Y43	Z43	X44	Y44	Z44	X45	Y45	Z45	X46	Y46	Z46	X47	Y47	Z47	
500	2.5000	641.617310	1287.247681	41.802361	740.900879	1270.864990	-319.385529	685.376892	1389.327637	-134.621292	675.151672	1220.004761	-134.218704	498.335236	1025.644897	61.564766	683.807312	898.778503	-45.049599	589.831543	1100.965454	-518.737854	703.631409	899.753662	-443.242615	340.751923	1209.504639	-390.825531	296.494629	1220.220215	-64.926277	319.129547	1153.683350	-372.282410	323.987762	1172.853638	-93.254982	201.685516	1282.147827	-187.521866	196.196564	1275.473877	-290.962311	243.242142	1126.745850	-39.928879	239.488419	1083.158081	-418.796356	319.972595	1012.606689	-28.530798	378.895813	953.578796	-35.211952	436.981140	886.041382	-52.429428	420.309906	990.920227	-49.215199	482.723419	783.739197	-78.411964	423.514862	678.201599	-49.632744	391.927155	599.612488	-57.243366	350.327301	522.154358	-71.461128	435.053741	583.485229	-96.505943	286.327484	411.188843	-92.371101	327.214386	426.064941	-175.465561	236.845581	381.376312	-151.235550	504.146423	348.094788	-125.841499	396.512604	320.306793	-61.188339	280.509949	965.556641	-426.481995	337.597168	897.300049	-425.621948	378.893646	929.965881	-416.023956	383.161285	826.168945	-410.050385	413.057343	706.711731	-391.901031	310.258942	667.146240	-429.527649	243.880676	611.868591	-426.677704	176.015472	559.872253	-417.266998	279.116119	571.757385	-395.868958	75.367271	483.008606	-406.437775	101.204872	465.675568	-325.240540	18.713715	490.685394	-363.455811	179.994217	263.443817	-375.727661	97.697975	332.628510	-438.923615	-224.464127	893.092529	-252.511688	-13.269772	85.237762	-457.690826	-22.998796	80.750870	-57.691708	
501	2.5050	641.913574	1287.435547	41.720707	741.265625	1272.041504	-320.611145	685.518555	1389.998657	-135.526199	676.238953	1220.647095	-135.119461	498.130127	1025.805298	60.721462	683.754883	898.752808	-45.274757	590.549255	1101.006714	-518.957947	704.109131	899.518433	-443.639496	341.391174	1208.462646	-391.336761	297.700439	1218.383057	-65.339096	320.095978	1152.688843	-372.774567	325.543121	1171.084473	-94.163795	202.076279	1279.921631	-187.345276	196.381180	1274.279053	-291.288910	244.821289	1124.097656	-40.490803	241.099045	1082.069458	-419.271515	321.009277	1009.675415	-29.135849	379.209595	950.112854	-35.420662	436.870758	882.095520	-53.359970	421.083405	987.139465	-49.960110	482.019470	779.609863	-79.227371	423.161652	673.874512	-50.132164	391.837524	595.197632	-57.608242	350.550568	517.583496	-71.635551	434.955536	578.621887	-97.420685	286.599762	406.541351	-92.443146	327.646118	421.096680	-175.459351	237.296829	376.844208	-151.328781	504.439941	342.179291	-125.909698	396.576019	314.992188	-61.300873	283.548401	965.264587	-426.797668	341.413055	897.608337	-425.990112	382.390167	930.683777	-416.185455	387.785767	826.924316	-410.804108	418.035400	707.831665	-393.547974	314.655396	669.221497	-430.348053	247.600433	614.754700	-427.167480	179.047195	563.693054	-417.539642	282.399384	574.194275	-396.464966	77.732262	488.357452	-406.550659	103.785851	470.911407	-324.851593	20.935818	496.555206	-363.453217	179.871231	267.720001	-375.736664	99.027664	338.673676	-440.217926	-224.467346	893.101501	-252.520538	-13.269386	85.269707	-457.674591	-22.999660	80.761200	-57.707970	
502	2.5100	642.474976	1287.401978	40.865295	741.447754	1273.388794	-321.972168	685.635864	1390.692871	-136.441116	677.287659	1221.245972	-136.090500	498.030243	1025.847656	59.808331	683.733032	898.703125	-45.615402	591.327148	1100.943848	-519.186646	704.578003	899.264709	-444.037292	341.964966	1207.507935	-391.843079	299.061737	1216.457764	-65.764938	321.054199	1151.769409	-373.251984	326.932831	1169.334839	-94.870010	202.266190	1277.562500	-187.124329	196.844498	1272.538330	-291.238007	246.397034	1121.559082	-41.002457	242.771973	1081.023682	-419.792389	322.003418	1006.589050	-29.768091	379.707611	946.652344	-36.197697	436.764465	878.099487	-54.270710	421.776550	983.270020	-50.697464	481.324158	775.421387	-79.968246	422.868164	669.405457	-50.919601	391.715729	590.752747	-57.975933	350.712341	512.955383	-71.869347	434.890381	574.683228	-97.568695	286.802979	401.810272	-92.641113	328.005249	416.175110	-175.475784	237.516190	372.337036	-151.369995	504.818329	336.382477	-126.181686	396.569641	309.522766	-61.358540	286.729004	965.009094	-427.140594	345.297699	897.986694	-426.431213	385.865967	931.517212	-416.386597	392.540863	827.844971	-411.222198	423.131042	708.861816	-394.819336	319.221893	671.254456	-431.241669	251.492432	617.633667	-427.858307	182.499710	567.579224	-417.936157	285.752625	576.613159	-397.123413	80.042702	493.872864	-406.919159	106.307388	475.990723	-324.838318	23.553341	502.567383	-363.460052	179.918869	271.985321	-375.777954	99.576035	343.502625	-439.842041	-224.437836	893.103271	-252.543030	-13.256003	85.252098	-457.674316	-22.989426	80.761818	-57.713654	
503	2.5150	642.949829	1287.465820	40.335335	741.513306	1274.869019	-323.458130	685.723999	1391.489990	-137.518753	678.310852	1222.085205	-137.226028	497.947571	1025.906128	58.948013	683.771057	898.608337	-46.091846	592.147278	1100.838135	-519.317139	705.040710	899.000122	-444.556793	342.589935	1206.610596	-392.389130	300.297302	1214.561890	-66.178795	322.113647	1150.892090	-373.711975	328.394043	1167.540527	-95.921745	202.283600	1275.090332	-186.866165	197.799576	1270.381226	-291.139252	247.920532	1118.879639	-41.590023	244.557434	1080.013306	-420.348419	322.954620	1003.587219	-30.363611	380.189423	943.151733	-37.061672	436.606689	874.130920	-55.147602	422.483917	979.423767	-51.473465	480.512512	771.163757	-80.751183	422.454529	665.013428	-51.433819	391.532532	586.265747	-58.371952	350.778778	508.259003	-72.121086	434.773773	570.348694	-97.495399	286.930359	397.017151	-92.875694	328.250702	411.273163	-175.536652	237.662888	367.895874	-151.452316	504.560883	329.725006	-126.868126	396.380432	304.219025	-61.452198	289.867889	964.796021	-427.560699	349.232117	898.432190	-426.957153	389.328308	932.424927	-416.728882	397.333405	828.751709	-412.180359	428.259338	709.829285	-396.207001	323.914764	673.333984	-432.202118	255.569611	620.501160	-428.567871	185.373077	571.712341	-419.071259	289.322815	579.202576	-397.869537	82.739159	499.138336	-407.053650	109.137695	481.077820	-324.938110	26.470137	508.522461	-363.425629	180.199539	276.274780	-375.824158	100.319771	348.404877	-439.503479	-224.425598	893.136475	-252.565414	-13.248166	85.273750	-457.685852	-22.985462	80.768417	-57.709904	
